<?xml version="1.0" encoding="utf-8"?>
<!-- Generator: Adobe Illustrator 25.3.1, SVG Export Plug-In . SVG Version: 6.00 Build 0)  -->
<svg version="1.1" id="Layer_1" xmlns="http://www.w3.org/2000/svg" xmlns:xlink="http://www.w3.org/1999/xlink" x="0px" y="0px"
	 viewBox="0 0 327.9 104.6" style="enable-background:new 0 0 327.9 104.6;" xml:space="preserve">
<style type="text/css">
	.st0{fill:#624193;}
</style>
<g>
	<g>
		<path class="st0" d="M46.8,31c-4.8,0-8.1,1.7-8.1,5.2c0,11.8,34,5.2,34,28.2c0,12.5-10.9,19.3-25,19.3c-10.1,0-20.2-3.7-27.4-9.4
			c-0.5-0.4-0.7-1.1-0.4-1.7l4.5-9.2c0.4-0.8,1.4-1,2.1-0.5c6.5,5.2,15,8.5,21.3,8.5c5.9,0,9.5-2.2,9.5-6.1c0-12-34-5-34-27.7
			c0-11.6,9.9-18.9,24.7-18.9c8.5,0,16.9,2.4,23.2,6.3c0.6,0.4,0.9,1.1,0.6,1.8l-4.4,9.5c-0.3,0.7-1.2,1-1.9,0.6
			C58.9,33.3,51.6,31,46.8,31z"/>
		<path class="st0" d="M126.2,35.5v46.3c0,0.8-0.6,1.4-1.4,1.4h-11.2c-0.8,0-1.4-0.6-1.4-1.4V79c0-1.3-1.6-1.9-2.4-0.9
			c-3.4,3.9-8.2,5.7-14,5.7C85,83.8,78.1,76.6,78.1,65V35.5c0-0.8,0.6-1.4,1.4-1.4h11.3c0.8,0,1.4,0.6,1.4,1.4v25.4
			c0,6.2,3.6,9.9,9.2,9.9c6.8-0.1,10.9-5.4,10.9-12.5V35.5c0-0.8,0.6-1.4,1.4-1.4h11.2C125.6,34.1,126.2,34.7,126.2,35.5z"/>
		<path class="st0" d="M214.6,52.4v29.5c0,0.8-0.6,1.4-1.4,1.4h-11.2c-0.8,0-1.4-0.6-1.4-1.4V56.5c0-6.3-3.7-10-9.5-10
			c-6.8,0.1-10.9,5.4-10.9,12.5v22.9c0,0.8-0.6,1.4-1.4,1.4h-11.2c-0.8,0-1.4-0.6-1.4-1.4V56.5c0-6.3-3.7-10-9.4-10
			c-6.8,0.1-11,5.4-11,12.5v22.9c0,0.8-0.6,1.4-1.4,1.4h-11.3c-0.8,0-1.4-0.6-1.4-1.4V35.5c0-0.8,0.6-1.4,1.4-1.4h11.3
			c0.8,0,1.4,0.6,1.4,1.4v2.8c0,1.3,1.6,1.9,2.4,0.9c3.5-3.8,8.3-5.6,14.2-5.7c7.2,0,12.6,3.2,15.5,8.7c0.5,1,1.9,1,2.4,0
			c3.4-5.8,9.1-8.6,16.4-8.7C207.8,33.6,214.6,40.9,214.6,52.4z"/>
		<path class="st0" d="M239.8,32.2v2.7c0,0.8,0.6,1.4,1.4,1.4h8.8c0.8,0,1.4,0.6,1.4,1.4v7c0,0.8-0.6,1.4-1.4,1.4h-8.8
			c-0.8,0-1.4,0.6-1.4,1.4v34.4c0,0.8-0.6,1.4-1.4,1.4h-11.2c-0.8,0-1.4-0.6-1.4-1.4V47.5c0-0.8-0.6-1.4-1.4-1.4h-3.8
			c-0.8,0-1.4-0.6-1.4-1.4v-7c0-0.8,0.6-1.4,1.4-1.4h3.8c0.8,0,1.4-0.6,1.4-1.4v-3.3c0-11,8.2-16.8,18.1-16.8
			c4.1,0,8.4,0.9,11.7,2.8c0.7,0.4,0.9,1.2,0.6,1.8l-3.8,7.7c-0.3,0.7-1.2,1-1.9,0.6c-1.6-0.9-3.3-1.3-4.9-1.3
			C242.3,26.5,239.8,28.3,239.8,32.2z"/>
		<path class="st0" d="M269.3,101.6c-4.8,0-8.6-1.2-12.3-4c-0.6-0.4-0.7-1.2-0.4-1.8l4.5-7.7c0.4-0.7,1.3-0.9,2-0.4
			c1.7,1.2,3.3,1.7,5.2,1.7c2.9,0,5.1-1.5,6.5-4.4l1.1-2.2c0.2-0.4,0.2-0.8,0-1.2l-19.3-45.6c-0.4-0.9,0.3-1.9,1.3-1.9h11.4
			c0.6,0,1.1,0.4,1.3,0.9l11.2,29.3c0.5,1.2,2.2,1.2,2.6,0l10-29.2c0.2-0.6,0.7-0.9,1.3-0.9h11c1,0,1.7,1,1.3,1.9l-20.8,52.7
			C283.8,97.4,277.8,101.6,269.3,101.6z"/>
	</g>
	<path class="st0" d="M84.9,12.5L84.9,12.5c-2.4-0.4-4.4,0.4-6.1,2.1c-1.1,1.1-1.8,2.6-2.1,4.2C76,24.5,82,29,87.5,26.1
		c1-0.5,1.8-1.3,2.5-2.2c1.4-1.8,3.3-3.1,5.4-3.7c0.9-0.3,1.9-0.5,2.8-0.7c3.3-0.6,6.3,0.2,8.8,2.5c1.3,1.3,2.8,2.4,4.5,3
		c1.7,0.6,3.4,0.9,5.2,0.6c3.2-0.5,5.8-1.9,7.6-4.3c2.1-2.8,2.9-6.5,2-9.9c-0.9-3.5-3.3-5.9-6.9-7.5c-0.4-0.2-0.9-0.3-1.3-0.4
		c-0.1,0-0.2-0.1-0.3-0.1c-7.4-1.4-10.8,3.4-10.8,3.4c-1,1-1.7,2.3-2.2,3.6c-1.4,3.1-3.7,5.2-7.1,6c-2.9,0.7-5.6,0.3-8.1-1.5
		C89.7,14.8,86.6,13,84.9,12.5z"/>
</g>
</svg>
