<?xml version="1.0" encoding="utf-8"?>
<!-- Generator: Adobe Illustrator 25.3.1, SVG Export Plug-In . SVG Version: 6.00 Build 0)  -->
<svg version="1.1" id="Layer_1" xmlns="http://www.w3.org/2000/svg" xmlns:xlink="http://www.w3.org/1999/xlink" x="0px" y="0px"
	 viewBox="0 0 80.9 104.6" style="enable-background:new 0 0 80.9 104.6;" xml:space="preserve">
<style type="text/css">
	.st0{fill:#624193;}
</style>
<g>
	<g>
		<path class="st0" d="M40.2,47.8c-5.1,0-8.5,1.8-8.5,5.4c0,12.3,35.6,5.4,35.5,29.5c0,13.1-11.4,20.1-26.2,20.1
			c-10.6,0-21.1-3.9-28.6-9.9c-0.5-0.4-0.7-1.2-0.4-1.8l4.7-9.6c0.4-0.8,1.5-1.1,2.2-0.5c6.8,5.4,15.7,8.8,22.3,8.8
			c6.2,0,9.9-2.3,9.9-6.4c0-12.6-35.6-5.2-35.6-28.9c0-12.1,10.4-19.8,25.9-19.8c8.8,0,17.7,2.6,24.3,6.5c0.6,0.4,0.9,1.2,0.6,1.9
			l-4.6,9.9c-0.4,0.8-1.3,1.1-2,0.7C52.9,50.2,45.2,47.8,40.2,47.8z"/>
		<path class="st0" d="M21.6,12.4L21.6,12.4c-2.7-0.4-5,0.5-6.9,2.3c-1.3,1.3-2.1,2.9-2.3,4.8c-0.9,6.4,5.9,11.6,12.1,8.3
			c1.1-0.6,2.1-1.5,2.9-2.5c1.5-2,3.7-3.5,6.2-4.2c1.1-0.3,2.1-0.6,3.2-0.8c3.8-0.7,7.2,0.2,10,2.8c1.5,1.4,3.1,2.7,5.1,3.4
			c1.9,0.7,3.9,1,5.9,0.7c3.7-0.5,6.6-2.1,8.7-4.9c2.4-3.2,3.2-7.4,2.2-11.2c-1-4-3.7-6.7-7.8-8.5c-0.5-0.2-1-0.3-1.5-0.5
			C59.2,2,59.1,2,59,2c-8.4-1.6-12.3,3.8-12.3,3.8c-1.1,1.2-1.9,2.6-2.5,4.1c-1.6,3.6-4.2,5.9-8,6.9c-3.3,0.8-6.4,0.4-9.2-1.7
			C26.9,15.1,23.5,13,21.6,12.4z"/>
	</g>
</g>
</svg>
