<?xml version="1.0" encoding="utf-8"?>
<!-- Generator: Adobe Illustrator 25.3.1, SVG Export Plug-In . SVG Version: 6.00 Build 0)  -->
<svg version="1.1" id="Layer_1" xmlns="http://www.w3.org/2000/svg" xmlns:xlink="http://www.w3.org/1999/xlink" x="0px" y="0px"
	 viewBox="0 0 327.9 104.6" style="enable-background:new 0 0 327.9 104.6;" xml:space="preserve">
<style type="text/css">
	.st0{fill:#FFFFFF;}
</style>
<g>
	<g>
		<path class="st0" d="M43.3,30.4c-5,0-8.4,1.8-8.4,5.4c0,12.1,35.1,5.4,35,29c0,12.9-11.2,19.8-25.8,19.8
			c-10.4,0-20.8-3.8-28.2-9.7c-0.5-0.4-0.7-1.1-0.4-1.7l4.6-9.5c0.4-0.8,1.5-1.1,2.2-0.5c6.6,5.3,15.4,8.7,21.9,8.7
			c6.1,0,9.8-2.3,9.8-6.3c0-12.4-35.1-5.2-35.1-28.5c0-11.9,10.2-19.5,25.5-19.5c8.7,0,17.4,2.5,23.9,6.4c0.6,0.4,0.9,1.2,0.6,1.8
			l-4.5,9.7c-0.3,0.7-1.3,1.1-2,0.7C55.8,32.7,48.2,30.4,43.3,30.4z"/>
		<path class="st0" d="M125.1,35v47.7c0,0.8-0.6,1.4-1.4,1.4h-11.5c-0.8,0-1.4-0.6-1.4-1.4v-2.9c0-1.3-1.6-2-2.5-1
			c-3.5,4-8.4,5.9-14.4,5.9c-11.2,0-18.2-7.4-18.2-19.4V35c0-0.8,0.6-1.4,1.4-1.4h11.6c0.8,0,1.4,0.6,1.4,1.4v26.2
			c0,6.4,3.7,10.2,9.5,10.2c7-0.1,11.2-5.5,11.2-12.9V35c0-0.8,0.6-1.4,1.4-1.4h11.5C124.5,33.6,125.1,34.2,125.1,35z"/>
		<path class="st0" d="M216.1,52.4v30.3c0,0.8-0.6,1.4-1.4,1.4h-11.5c-0.8,0-1.4-0.6-1.4-1.4V56.6c0-6.5-3.8-10.3-9.8-10.3
			c-7,0.1-11.2,5.5-11.2,12.9v23.6c0,0.8-0.6,1.4-1.4,1.4h-11.5c-0.8,0-1.4-0.6-1.4-1.4V56.6c0-6.5-3.8-10.3-9.7-10.3
			c-7,0.1-11.3,5.5-11.3,12.9v23.6c0,0.8-0.6,1.4-1.4,1.4h-11.6c-0.8,0-1.4-0.6-1.4-1.4V35c0-0.8,0.6-1.4,1.4-1.4H144
			c0.8,0,1.4,0.6,1.4,1.4v2.9c0,1.3,1.6,1.9,2.5,0.9c3.6-3.9,8.6-5.8,14.6-5.9c7.4,0,13,3.3,16,8.9c0.5,1,1.9,1,2.5,0
			c3.5-6,9.4-8.9,16.9-8.9C209.1,33,216.1,40.5,216.1,52.4z"/>
		<path class="st0" d="M242.1,31.6v2.8c0,0.8,0.6,1.4,1.4,1.4h9.1c0.8,0,1.4,0.6,1.4,1.4v7.2c0,0.8-0.6,1.4-1.4,1.4h-9.1
			c-0.8,0-1.4,0.6-1.4,1.4v35.4c0,0.8-0.6,1.4-1.4,1.4h-11.5c-0.8,0-1.4-0.6-1.4-1.4V47.3c0-0.8-0.6-1.4-1.4-1.4h-3.9
			c-0.8,0-1.4-0.6-1.4-1.4v-7.2c0-0.8,0.6-1.4,1.4-1.4h3.9c0.8,0,1.4-0.6,1.4-1.4V31c0-11.3,8.5-17.3,18.6-17.3
			c4.2,0,8.6,1,12.1,2.9c0.7,0.4,0.9,1.2,0.6,1.9l-3.9,7.9c-0.4,0.7-1.2,1-1.9,0.6c-1.6-0.9-3.4-1.4-5.1-1.4
			C244.7,25.7,242.1,27.6,242.1,31.6z"/>
		<path class="st0" d="M272.4,103c-4.9,0-8.9-1.3-12.7-4.1c-0.6-0.4-0.8-1.3-0.4-1.9l4.7-7.9c0.4-0.7,1.4-0.9,2-0.5
			c1.8,1.2,3.4,1.8,5.4,1.8c3,0,5.3-1.5,6.7-4.5l1.1-2.2c0.2-0.4,0.2-0.8,0-1.2l-19.9-46.9c-0.4-0.9,0.3-2,1.3-2h11.8
			c0.6,0,1.1,0.4,1.3,0.9l11.5,30.1c0.5,1.3,2.3,1.2,2.7,0l10.3-30.1c0.2-0.6,0.7-1,1.4-1H311c1,0,1.7,1,1.3,2l-21.4,54.2
			C287.4,98.7,281.2,103,272.4,103z"/>
	</g>
	<path class="st0" d="M82.6,11.3L82.6,11.3c-2.4-0.4-4.6,0.4-6.3,2.1c-1.2,1.2-1.9,2.6-2.1,4.3c-0.8,5.8,5.4,10.5,11,7.5
		c1-0.6,1.9-1.4,2.6-2.3c1.4-1.8,3.4-3.2,5.6-3.8c1-0.3,1.9-0.5,2.9-0.7c3.4-0.7,6.5,0.2,9.1,2.6c1.4,1.3,2.8,2.4,4.6,3.1
		c1.7,0.6,3.5,0.9,5.4,0.6c3.3-0.5,6-1.9,7.9-4.5c2.2-2.9,2.9-6.7,2-10.2c-0.9-3.6-3.4-6.1-7.1-7.7c-0.4-0.2-0.9-0.3-1.4-0.4
		c-0.1,0-0.2-0.1-0.3-0.1c-7.6-1.5-11.1,3.5-11.1,3.5c-1,1.1-1.7,2.4-2.3,3.7c-1.4,3.2-3.8,5.4-7.3,6.2c-3,0.7-5.8,0.3-8.4-1.5
		C87.4,13.7,84.3,11.8,82.6,11.3z"/>
</g>
</svg>
